<svg xmlns="http://www.w3.org/2000/svg" xmlns:xlink="http://www.w3.org/1999/xlink" version="1.1" x="0px" y="0px" viewBox="0 0 100 125" enable-background="new 0 0 100 100" xml:space="preserve"><g display="none"><path display="inline" fill="#000000" d="M60.37,61.82H39.63c-1.92,0-3.48,1.56-3.48,3.479c0,1.87,0.37,3.681,1.09,5.39   c0.7,1.65,1.7,3.131,2.97,4.4s2.75,2.27,4.4,2.971c1.71,0.719,3.52,1.09,5.39,1.09s3.68-0.371,5.391-1.09   c1.649-0.701,3.129-1.701,4.399-2.971s2.271-2.75,2.97-4.4c0.721-1.709,1.09-3.529,1.09-5.39C63.85,63.38,62.29,61.82,60.37,61.82z    M50,72.189c-2.53,0-4.74-1.369-5.94-3.399h11.879C54.74,70.82,52.529,72.189,50,72.189z"/><path display="inline" fill="#000000" d="M94.99,49.71c-0.04-6.05-1.26-11.91-3.62-17.42c-1.14-2.65-2.54-5.21-4.17-7.59   c-1.61-2.37-3.46-4.59-5.5-6.61c-2.03-2.02-4.271-3.85-6.65-5.45c-2.399-1.61-4.96-3-7.62-4.11C61.9,6.2,56.04,5.03,50,5.03   c-0.1,0-0.2,0-0.3,0C43.63,5.07,37.74,6.3,32.21,8.68c-2.66,1.15-5.22,2.56-7.62,4.2c-2.37,1.62-4.6,3.49-6.62,5.53   c-2.02,2.05-3.85,4.3-5.45,6.69c-1.61,2.42-2.99,5-4.1,7.67C6.11,38.33,4.96,44.23,5,50.31c0.04,6.049,1.26,11.911,3.62,17.42   c1.14,2.649,2.54,5.209,4.17,7.59c1.61,2.369,3.46,4.59,5.5,6.609c2.03,2.021,4.27,3.85,6.65,5.45c2.4,1.61,4.96,3,7.62,4.11   c5.53,2.33,11.39,3.5,17.43,3.5c0.1,0,0.2,0,0.3,0c6.069-0.04,11.96-1.27,17.489-3.65c2.66-1.14,5.221-2.561,7.621-4.199   c2.369-1.621,4.6-3.49,6.619-5.531c2.021-2.049,3.851-4.299,5.451-6.689c1.609-2.42,2.989-5,4.1-7.67   C93.88,61.68,95.029,55.779,94.99,49.71z M77.061,76.71C69.93,83.939,60.4,87.96,50.25,88.02c-0.08,0-0.17,0-0.25,0   c-20.83,0-37.88-16.949-38.01-37.77c-0.07-10.16,3.83-19.73,10.96-26.96c7.13-7.23,16.66-11.25,26.81-11.31c0.08,0,0.17,0,0.25,0   c20.83,0,37.881,16.94,38.01,37.77C88.09,59.91,84.189,69.48,77.061,76.71z"/><path display="inline" fill="#000000" d="M36.07,45.25l-6.7-6.61c-1.37-1.35-3.57-1.34-4.93,0.03s-1.34,3.57,0.03,4.93l4.22,4.17   l-4.17,4.22c-1.35,1.369-1.34,3.58,0.03,4.93c0.68,0.67,1.56,1,2.45,1c0.9,0,1.8-0.35,2.48-1.04l6.61-6.7   C37.45,48.8,37.44,46.6,36.07,45.25z"/><path display="inline" fill="#000000" d="M71.221,47.48l4.17-4.22c1.35-1.37,1.34-3.57-0.031-4.93c-1.369-1.36-3.58-1.34-4.93,0.03   l-6.609,6.7c-1.35,1.37-1.34,3.58,0.029,4.93l6.7,6.609c0.681,0.67,1.56,1,2.45,1c0.9,0,1.8-0.35,2.48-1.039   c1.35-1.371,1.34-3.57-0.03-4.931L71.221,47.48z"/></g><g display="none"><g display="inline"><path fill="#000000" d="M50,94.99c-6.07,0-11.96-1.19-17.51-3.54c-2.67-1.13-5.24-2.521-7.64-4.15    c-2.38-1.61-4.62-3.46-6.66-5.489c-2.04-2.031-3.88-4.271-5.49-6.66c-1.62-2.41-3.02-4.98-4.15-7.641    C6.2,61.96,5.01,56.07,5.01,50c0-6.07,1.19-11.96,3.54-17.51c1.13-2.67,2.52-5.24,4.15-7.64c1.61-2.38,3.46-4.62,5.49-6.66    c2.04-2.04,4.27-3.88,6.66-5.49c2.41-1.62,4.98-3.02,7.64-4.15C38.04,6.2,43.93,5.01,50,5.01c6.07,0,11.96,1.19,17.51,3.54    c2.67,1.13,5.24,2.52,7.641,4.15c2.379,1.61,4.619,3.46,6.66,5.49c2.039,2.03,3.879,4.27,5.489,6.66    c1.62,2.41,3.021,4.98,4.15,7.64c2.35,5.55,3.54,11.44,3.54,17.51c0,6.07-1.19,11.96-3.54,17.51c-1.13,2.67-2.521,5.24-4.15,7.641    c-1.61,2.379-3.46,4.619-5.489,6.66c-2.031,2.039-4.271,3.879-6.66,5.489c-2.41,1.62-4.98,3.021-7.641,4.15    C61.96,93.8,56.07,94.99,50,94.99L50,94.99z M50,11.98c-20.96,0-38.02,17.06-38.02,38.02S29.04,88.02,50,88.02    S88.02,70.96,88.02,50S70.96,11.98,50,11.98L50,11.98z"/></g><g display="inline"><g><path fill="#000000" d="M36.57,53.48c-1.92,0-3.48-1.561-3.48-3.48c0-1.24-1.01-2.26-2.26-2.26s-2.26,1.01-2.26,2.26     c0,1.92-1.56,3.48-3.48,3.48S21.6,51.92,21.6,50c0-1.24,0.24-2.45,0.73-3.59c0.46-1.1,1.13-2.08,1.98-2.93s1.83-1.51,2.93-1.98     c1.14-0.48,2.35-0.73,3.59-0.73c1.24,0,2.45,0.24,3.59,0.73c1.1,0.46,2.08,1.13,2.93,1.98s1.51,1.83,1.97,2.93     c0.48,1.14,0.73,2.35,0.73,3.59C40.05,51.92,38.49,53.48,36.57,53.48L36.57,53.48z"/></g><g><path fill="#000000" d="M74.92,53.48c-1.92,0-3.48-1.561-3.48-3.48c0-1.24-1.01-2.26-2.26-2.26c-1.24,0-2.26,1.01-2.26,2.26     c0,1.92-1.561,3.48-3.48,3.48S59.96,51.92,59.96,50c0-1.24,0.24-2.45,0.729-3.59c0.461-1.1,1.131-2.08,1.971-2.93     c0.85-0.85,1.83-1.51,2.93-1.98c1.141-0.48,2.35-0.73,3.59-0.73s2.45,0.24,3.59,0.73c1.101,0.46,2.08,1.13,2.931,1.98     c0.85,0.85,1.51,1.83,1.979,2.93c0.48,1.14,0.73,2.35,0.73,3.59C78.4,51.92,76.84,53.48,74.92,53.48L74.92,53.48z"/></g></g><g display="inline"><g><path fill="#000000" d="M24.29,40.27c-1.4,0-2.73-0.85-3.26-2.25c-0.68-1.8,0.22-3.81,2.02-4.49l10.13-3.86     c1.8-0.68,3.81,0.22,4.5,2.02c0.68,1.8-0.22,3.81-2.02,4.49l-10.13,3.86C25.12,40.19,24.7,40.27,24.29,40.27L24.29,40.27z"/></g><g><path fill="#000000" d="M75.71,40.27c-0.41,0-0.83-0.07-1.239-0.23L64.34,36.18c-1.8-0.68-2.699-2.7-2.02-4.49     c0.68-1.8,2.699-2.7,4.5-2.02l10.13,3.86c1.8,0.68,2.7,2.7,2.021,4.49C78.439,39.41,77.12,40.27,75.71,40.27L75.71,40.27z"/></g></g><g display="inline"><path fill="#000000" d="M50,79.15c-1.87,0-3.68-0.371-5.39-1.09c-1.65-0.701-3.13-1.701-4.4-2.971s-2.27-2.75-2.97-4.4    c-0.72-1.709-1.09-3.529-1.09-5.39c0-1.92,1.56-3.479,3.48-3.479h20.74c1.92,0,3.479,1.56,3.479,3.479    c0,1.87-0.369,3.681-1.09,5.39c-0.699,1.65-1.699,3.131-2.97,4.4s-2.75,2.27-4.399,2.971C53.68,78.79,51.87,79.15,50,79.15    L50,79.15z M44.06,68.779c1.2,2.031,3.41,3.4,5.94,3.4c2.529,0,4.74-1.369,5.939-3.4H44.06L44.06,68.779z"/></g></g><g display="none"><g display="inline"><path fill="#000000" d="M50,79.15c-1.87,0-3.68-0.371-5.39-1.09c-1.65-0.701-3.13-1.701-4.4-2.971s-2.27-2.75-2.97-4.4    c-0.72-1.709-1.09-3.529-1.09-5.39c0-1.92,1.56-3.479,3.48-3.479h20.74c1.92,0,3.479,1.56,3.479,3.479    c0,1.87-0.369,3.681-1.09,5.39c-0.699,1.65-1.699,3.131-2.97,4.4s-2.75,2.27-4.399,2.971C53.68,78.79,51.87,79.15,50,79.15    L50,79.15z M44.06,68.779c1.2,2.031,3.41,3.4,5.94,3.4c2.529,0,4.74-1.369,5.939-3.4H44.06L44.06,68.779z"/></g><g display="inline"><path fill="#000000" d="M50,94.99c-6.07,0-11.96-1.19-17.51-3.54c-2.67-1.13-5.24-2.521-7.64-4.15    c-2.38-1.61-4.62-3.46-6.66-5.489c-2.04-2.031-3.88-4.271-5.49-6.66c-1.62-2.41-3.02-4.98-4.15-7.641    C6.2,61.96,5.01,56.07,5.01,50c0-6.07,1.19-11.96,3.54-17.51c1.13-2.67,2.52-5.24,4.15-7.64c1.61-2.38,3.46-4.62,5.49-6.66    c2.04-2.04,4.27-3.88,6.66-5.49c2.41-1.62,4.98-3.02,7.64-4.15C38.04,6.2,43.93,5.01,50,5.01c6.07,0,11.96,1.19,17.51,3.54    c2.67,1.13,5.24,2.52,7.641,4.15c2.379,1.61,4.619,3.46,6.66,5.49c2.039,2.03,3.879,4.27,5.489,6.66    c1.62,2.41,3.021,4.98,4.15,7.64c2.35,5.55,3.54,11.44,3.54,17.51c0,6.07-1.19,11.96-3.54,17.51c-1.13,2.67-2.521,5.24-4.15,7.641    c-1.61,2.379-3.46,4.619-5.489,6.66c-2.031,2.039-4.271,3.879-6.66,5.489c-2.41,1.62-4.98,3.021-7.641,4.15    C61.96,93.8,56.07,94.99,50,94.99L50,94.99z M50,11.98c-20.96,0-38.02,17.06-38.02,38.02S29.04,88.02,50,88.02    S88.02,70.96,88.02,50S70.96,11.98,50,11.98L50,11.98z"/></g><g display="inline"><path fill="#000000" d="M30.83,59.221c-1.24,0-2.45-0.25-3.59-0.73c-1.1-0.461-2.08-1.131-2.93-1.98s-1.51-1.83-1.98-2.93    c-0.48-1.141-0.73-2.35-0.73-3.59s0.24-2.45,0.73-3.59c0.46-1.1,1.13-2.08,1.98-2.93c0.85-0.85,1.83-1.51,2.93-1.98    c1.14-0.48,2.35-0.73,3.59-0.73c1.24,0,2.45,0.24,3.59,0.73c1.1,0.46,2.08,1.13,2.93,1.98c0.85,0.85,1.51,1.83,1.98,2.93    c0.48,1.14,0.73,2.35,0.73,3.59s-0.24,2.449-0.73,3.59c-0.46,1.1-1.13,2.08-1.98,2.93s-1.83,1.51-2.93,1.98    C33.28,58.98,32.07,59.221,30.83,59.221L30.83,59.221z M30.83,47.74c-1.24,0-2.26,1.01-2.26,2.26c0,1.24,1.01,2.26,2.26,2.26    s2.26-1.01,2.26-2.26C33.08,48.76,32.07,47.74,30.83,47.74L30.83,47.74z"/></g><g display="inline"><path fill="#000000" d="M74.92,53.48H63.43c-1.92,0-3.479-1.561-3.479-3.48s1.56-3.48,3.479-3.48h11.48    c1.92,0,3.48,1.56,3.48,3.48S76.84,53.48,74.92,53.48L74.92,53.48z"/></g><g display="inline"><path fill="#000000" d="M24.29,40.27c-1.4,0-2.73-0.85-3.26-2.25c-0.68-1.8,0.22-3.81,2.02-4.49l10.13-3.86    c1.8-0.68,3.81,0.22,4.5,2.02c0.68,1.8-0.22,3.81-2.02,4.49l-10.13,3.86C25.12,40.19,24.7,40.27,24.29,40.27L24.29,40.27z"/></g><g display="inline"><path fill="#000000" d="M75.71,40.27c-0.41,0-0.83-0.07-1.239-0.23L64.34,36.18c-1.8-0.68-2.699-2.7-2.02-4.49    c0.68-1.8,2.699-2.7,4.49-2.02l10.129,3.86c1.801,0.68,2.701,2.7,2.021,4.49C78.439,39.41,77.12,40.27,75.71,40.27L75.71,40.27z"/></g></g><g display="none"><g display="inline"><path fill="#000000" d="M50,79.15c-1.87,0-3.68-0.371-5.39-1.09c-1.65-0.701-3.13-1.701-4.4-2.971s-2.27-2.75-2.97-4.4    c-0.72-1.709-1.09-3.529-1.09-5.39c0-1.92,1.56-3.479,3.48-3.479h20.74c1.92,0,3.479,1.56,3.479,3.479    c0,1.87-0.369,3.681-1.09,5.39c-0.699,1.65-1.699,3.131-2.97,4.4s-2.75,2.27-4.399,2.971C53.68,78.79,51.87,79.15,50,79.15    L50,79.15z M44.06,68.779c1.2,2.031,3.41,3.4,5.94,3.4c2.529,0,4.74-1.369,5.939-3.4H44.06L44.06,68.779z"/></g><g display="inline"><path fill="#000000" d="M50,94.99c-6.07,0-11.96-1.19-17.51-3.54c-2.67-1.13-5.24-2.521-7.64-4.15    c-2.38-1.61-4.62-3.46-6.66-5.489c-2.04-2.041-3.88-4.271-5.49-6.66c-1.62-2.41-3.02-4.98-4.15-7.641    C6.2,61.96,5.01,56.07,5.01,50c0-6.07,1.19-11.96,3.54-17.51c1.13-2.67,2.52-5.24,4.15-7.64c1.61-2.38,3.46-4.62,5.49-6.66    c2.03-2.04,4.27-3.88,6.66-5.49c2.41-1.62,4.98-3.02,7.64-4.15C38.04,6.2,43.93,5.01,50,5.01c6.07,0,11.96,1.19,17.51,3.54    c2.67,1.13,5.24,2.52,7.641,4.15c2.379,1.61,4.619,3.46,6.66,5.49c2.039,2.03,3.879,4.27,5.489,6.66    c1.62,2.41,3.021,4.98,4.15,7.64c2.35,5.55,3.54,11.44,3.54,17.51c0,6.07-1.19,11.96-3.54,17.51c-1.13,2.67-2.521,5.24-4.15,7.641    c-1.61,2.379-3.46,4.619-5.489,6.66c-2.031,2.039-4.271,3.879-6.66,5.489c-2.41,1.62-4.98,3.021-7.641,4.15    C61.96,93.8,56.07,94.99,50,94.99L50,94.99z M50,11.98c-20.97,0-38.02,17.06-38.02,38.02S29.03,88.02,50,88.02    c20.96,0,38.02-17.06,38.02-38.02S70.96,11.98,50,11.98L50,11.98z"/></g><g display="inline"><path fill="#000000" d="M30.84,62.1c-0.92,0-1.81-0.369-2.46-1.02l-7.81-7.801c-0.86-0.859-1.52-1.859-1.98-2.979    c-0.44-1.08-0.66-2.22-0.66-3.39s0.22-2.31,0.66-3.39c0.45-1.12,1.12-2.12,1.98-2.98c0.86-0.86,1.86-1.52,2.98-1.98    c1.08-0.44,2.22-0.66,3.39-0.66s2.31,0.22,3.39,0.66c0.17,0.07,0.35,0.15,0.52,0.23c0.17-0.08,0.34-0.16,0.52-0.23    c1.08-0.44,2.22-0.66,3.39-0.66c1.17,0,2.31,0.22,3.39,0.66c1.12,0.45,2.12,1.12,2.98,1.98c0.86,0.86,1.52,1.86,1.98,2.98    c0.44,1.08,0.66,2.22,0.66,3.39s-0.22,2.31-0.66,3.39c-0.45,1.12-1.12,2.12-1.98,2.979l-7.81,7.801    C32.65,61.73,31.77,62.1,30.84,62.1L30.84,62.1z M26.94,44.87c-0.54,0-1.05,0.21-1.44,0.6c-0.79,0.79-0.79,2.08,0,2.88l5.34,5.339    l5.34-5.339c0.79-0.79,0.79-2.08,0-2.88c-0.38-0.38-0.9-0.6-1.44-0.6c-0.54,0-1.05,0.21-1.44,0.6c-0.65,0.65-1.54,1.02-2.46,1.02    s-1.81-0.37-2.46-1.02C28,45.08,27.49,44.87,26.94,44.87L26.94,44.87z"/></g><g display="inline"><path fill="#000000" d="M69.16,62.1c-0.92,0-1.811-0.369-2.46-1.02l-7.81-7.801c-0.861-0.859-1.521-1.859-1.98-2.979    c-0.439-1.08-0.66-2.22-0.66-3.39s0.221-2.31,0.66-3.39c0.449-1.12,1.119-2.12,1.98-2.98c0.859-0.86,1.859-1.52,2.979-1.98    c1.08-0.44,2.22-0.66,3.39-0.66s2.311,0.22,3.381,0.66c0.18,0.07,0.35,0.15,0.52,0.23c0.17-0.08,0.34-0.16,0.52-0.23    c1.08-0.44,2.221-0.66,3.391-0.66s2.31,0.22,3.39,0.66c1.12,0.45,2.12,1.12,2.979,1.98c0.86,0.86,1.521,1.86,1.98,2.98    c0.439,1.08,0.66,2.22,0.66,3.39s-0.221,2.31-0.66,3.39c-0.449,1.12-1.12,2.12-1.98,2.979l-7.799,7.801    C70.971,61.73,70.08,62.1,69.16,62.1L69.16,62.1z M65.25,44.87c-0.54,0-1.05,0.21-1.439,0.6c-0.391,0.39-0.601,0.9-0.601,1.44    s0.21,1.05,0.601,1.44l5.34,5.339l5.34-5.339c0.789-0.79,0.789-2.08,0-2.88c-0.381-0.38-0.9-0.6-1.44-0.6s-1.05,0.21-1.44,0.6    c-0.649,0.65-1.539,1.02-2.459,1.02s-1.811-0.37-2.461-1.02C66.311,45.08,65.8,44.87,65.25,44.87L65.25,44.87z"/></g></g><g display="none"><path display="inline" fill="#000000" d="M61.08,50c0,1.24,0.24,2.45,0.73,3.59c0.459,1.1,1.129,2.08,1.979,2.93   c0.851,0.851,1.83,1.51,2.931,1.98c1.139,0.48,2.35,0.73,3.59,0.73c1.239,0,2.449-0.25,3.59-0.73c1.1-0.46,2.08-1.13,2.93-1.98   c0.85-0.85,1.51-1.83,1.98-2.93c0.479-1.14,0.729-2.35,0.729-3.59s-0.24-2.45-0.729-3.59c-0.461-1.1-1.131-2.08-1.98-2.93   S75,41.97,73.9,41.5c-1.141-0.48-2.351-0.73-3.59-0.73c-1.24,0-2.451,0.25-3.59,0.73c-1.101,0.46-2.08,1.13-2.931,1.98   s-1.511,1.83-1.979,2.93C61.33,47.55,61.08,48.76,61.08,50z M70.311,47.74c1.239,0,2.26,1.01,2.26,2.26s-1.01,2.26-2.26,2.26   S68.05,51.25,68.05,50S69.061,47.74,70.311,47.74z"/><path display="inline" fill="#000000" d="M91.45,32.49c-1.13-2.67-2.521-5.24-4.15-7.64c-1.61-2.38-3.46-4.62-5.489-6.66   c-2.031-2.04-4.271-3.88-6.66-5.49c-2.41-1.62-4.98-3.02-7.641-4.15C61.96,6.2,56.07,5.01,50,5.01c-6.07,0-11.96,1.19-17.51,3.54   c-2.67,1.13-5.24,2.52-7.64,4.15c-2.38,1.61-4.62,3.46-6.66,5.49c-2.04,2.03-3.88,4.27-5.49,6.66c-1.62,2.41-3.02,4.98-4.15,7.64   C6.2,38.04,5.01,43.93,5.01,50c0,3.57,0.42,7.12,1.25,10.561c0.8,3.34,2,6.6,3.55,9.67c0.87,1.72,2.96,2.41,4.68,1.539   c1.72-0.869,2.41-2.959,1.54-4.68c-2.69-5.33-4.05-11.08-4.05-17.1c0-20.96,17.06-38.02,38.02-38.02S88.02,29.04,88.02,50   S70.96,88.02,50,88.02c-0.71,0-1.42-0.02-2.13-0.06c-1.92-0.11-3.56,1.37-3.67,3.29c-0.11,1.92,1.37,3.561,3.29,3.67   c0.83,0.051,1.68,0.07,2.51,0.07c6.07,0,11.96-1.19,17.51-3.54c2.67-1.13,5.24-2.521,7.641-4.15c2.379-1.61,4.619-3.46,6.66-5.489   c2.039-2.031,3.879-4.271,5.489-6.66c1.62-2.41,3.021-4.98,4.15-7.641C93.8,61.96,94.99,56.07,94.99,50   C94.99,43.93,93.8,38.04,91.45,32.49z"/><path display="inline" fill="#000000" d="M24.29,40.27c0.41,0,0.83-0.07,1.24-0.23l10.13-3.86c1.8-0.68,2.7-2.7,2.02-4.5   c-0.68-1.8-2.7-2.7-4.5-2.02l-10.13,3.86c-1.8,0.68-2.7,2.7-2.02,4.5C21.56,39.41,22.88,40.27,24.29,40.27z"/><path display="inline" fill="#000000" d="M74.471,40.04c0.409,0.16,0.829,0.23,1.239,0.23c1.399,0,2.729-0.86,3.261-2.25   c0.68-1.8-0.221-3.81-2.021-4.5l-10.13-3.86c-1.801-0.68-3.811,0.22-4.5,2.02c-0.69,1.8,0.22,3.81,2.02,4.5L74.471,40.04z"/><path display="inline" fill="#000000" d="M44.48,80.04h15.75c1.92,0,3.479-1.56,3.479-3.479c0-1.871-0.37-3.681-1.09-5.391   c-0.7-1.65-1.7-3.13-2.97-4.4c-1.271-1.27-2.75-2.27-4.4-2.97c-1.71-0.72-3.52-1.09-5.39-1.09c-3.29,0-6.48,1.17-8.98,3.3   c-0.33,0.29-0.65,0.59-0.96,0.9c-0.46-0.92-0.94-1.87-1.46-2.86c-1.27-2.42-2.54-4.67-3.55-6.43c0.47-0.32,0.9-0.681,1.31-1.091   c0.85-0.85,1.51-1.829,1.98-2.93c0.48-1.14,0.73-2.35,0.73-3.59c0-1.24-0.24-2.45-0.73-3.59c-0.46-1.1-1.13-2.08-1.98-2.93   c-0.85-0.85-1.83-1.51-2.93-1.98c-1.14-0.48-2.35-0.73-3.59-0.73c-1.24,0-2.45,0.25-3.59,0.73c-1.1,0.46-2.08,1.13-2.93,1.98   c-0.85,0.85-1.51,1.83-1.98,2.93c-0.48,1.14-0.73,2.35-0.73,3.59c0,1.24,0.24,2.45,0.73,3.59c0.46,1.101,1.13,2.08,1.98,2.93   c0.43,0.431,0.89,0.811,1.39,1.141c-1.01,1.75-2.26,3.98-3.52,6.38c-1.69,3.21-3.04,6.05-4.01,8.44c-1.38,3.38-2.02,5.84-2.02,7.77   c0,1.99,0.39,3.92,1.16,5.74c0.74,1.75,1.8,3.33,3.16,4.68c1.35,1.35,2.93,2.41,4.68,3.16c1.82,0.77,3.75,1.16,5.74,1.16   c1.99,0,3.92-0.391,5.74-1.16c1.75-0.74,3.33-1.8,4.68-3.16c1.35-1.359,2.41-2.93,3.16-4.68c0.77-1.82,1.16-3.75,1.16-5.74   C44.49,80.18,44.49,80.109,44.48,80.04z M49.86,69.67c2.531,0,4.74,1.37,5.94,3.4H43.91C45.11,71.01,47.34,69.67,49.86,69.67z    M29.69,47.74c1.25,0,2.26,1.01,2.26,2.26s-1.01,2.26-2.26,2.26c-1.24,0-2.26-1.01-2.26-2.26S28.45,47.74,29.69,47.74z    M29.75,88.02c-4.29,0-7.77-3.49-7.77-7.77c0-0.71,0.38-3.73,5.21-12.93c0.88-1.67,1.77-3.28,2.56-4.69   c0.8,1.41,1.68,3.011,2.56,4.69c2.02,3.85,3.27,6.619,4.03,8.59c0.03,0.08,0.06,0.17,0.1,0.25c0.19,0.49,0.34,0.93,0.47,1.33   c0.03,0.1,0.06,0.189,0.09,0.289c0.46,1.451,0.53,2.181,0.53,2.48C37.52,84.54,34.03,88.02,29.75,88.02z"/></g><g display="none"><path display="inline" fill="#000000" d="M59.8,66.76c-1.271-1.27-2.75-2.27-4.399-2.97c-1.711-0.72-3.521-1.09-5.391-1.09   c-1.87,0-3.68,0.37-5.39,1.09c-1.65,0.7-3.13,1.7-4.4,2.97s-2.27,2.75-2.97,4.4c-0.72,1.71-1.09,3.529-1.09,5.39   c0,1.921,1.56,3.479,3.48,3.479h20.74c1.92,0,3.479-1.559,3.479-3.479c0-1.87-0.369-3.68-1.09-5.39   C62.07,69.51,61.07,68.029,59.8,66.76z M44.06,73.07c1.2-2.03,3.41-3.4,5.94-3.4c2.529,0,4.74,1.37,5.939,3.4H44.06z"/><path display="inline" fill="#000000" d="M24.29,35.23c0.41,0,0.83-0.07,1.24-0.23l10.13-3.86c1.8-0.68,2.7-2.7,2.02-4.5   c-0.68-1.8-2.7-2.7-4.5-2.02l-10.13,3.86c-1.8,0.68-2.7,2.7-2.02,4.5C21.56,34.38,22.88,35.23,24.29,35.23z"/><path display="inline" fill="#000000" d="M62.32,26.65c-0.68,1.8,0.22,3.81,2.02,4.5L74.471,35c0.409,0.16,0.829,0.23,1.239,0.23   c1.399,0,2.729-0.86,3.261-2.25c0.68-1.8-0.221-3.81-2.021-4.5l-10.13-3.86C65.02,23.95,63.01,24.86,62.32,26.65z"/><path display="inline" fill="#000000" d="M91.45,32.49c-1.13-2.67-2.521-5.24-4.15-7.64c-1.61-2.38-3.46-4.62-5.489-6.66   c-2.031-2.04-4.271-3.88-6.66-5.49c-2.41-1.62-4.98-3.02-7.641-4.15C61.96,6.2,56.07,5.01,50,5.01c-6.07,0-11.96,1.19-17.51,3.54   c-2.67,1.13-5.24,2.52-7.64,4.15c-2.38,1.61-4.62,3.46-6.66,5.49c-2.04,2.03-3.88,4.27-5.49,6.66c-1.62,2.41-3.02,4.98-4.15,7.64   C6.2,38.04,5.01,43.93,5.01,50c0,6.07,1.19,11.96,3.54,17.51c1.13,2.67,2.52,5.24,4.15,7.641c1.61,2.379,3.46,4.619,5.49,6.66   c2.03,2.039,4.27,3.879,6.66,5.489c2.41,1.62,4.98,3.021,7.64,4.15c5.55,2.35,11.44,3.54,17.51,3.54c6.07,0,11.96-1.19,17.51-3.54   c2.67-1.13,5.24-2.521,7.641-4.15c2.379-1.61,4.619-3.46,6.66-5.489c2.039-2.041,3.879-4.271,5.489-6.66   c1.62-2.41,3.021-4.98,4.15-7.641C93.8,61.96,94.99,56.07,94.99,50C94.99,43.93,93.8,38.04,91.45,32.49z M50,88.02   c-20.96,0-38.02-17.06-38.02-38.02S29.04,11.98,50,11.98S88.02,29.04,88.02,50S70.96,88.02,50,88.02z"/><path display="inline" fill="#000000" d="M39.32,53.59c0.48-1.14,0.73-2.35,0.73-3.59s-0.24-2.45-0.73-3.59   c-0.46-1.1-1.13-2.08-1.98-2.93c-0.85-0.85-1.83-1.51-2.93-1.98c-1.14-0.48-2.35-0.73-3.59-0.73c-1.24,0-2.45,0.25-3.59,0.73   c-1.1,0.46-2.08,1.13-2.93,1.98c-0.85,0.85-1.51,1.83-1.98,2.93c-0.48,1.14-0.73,2.35-0.73,3.59s0.25,2.45,0.73,3.59   c0.46,1.1,1.13,2.08,1.98,2.93c0.85,0.851,1.83,1.51,2.93,1.98c1.14,0.48,2.35,0.73,3.59,0.73c1.24,0,2.45-0.24,3.59-0.73   c1.1-0.46,2.08-1.13,2.93-1.98C38.19,55.67,38.86,54.689,39.32,53.59z M30.83,52.26c-1.25,0-2.26-1.01-2.26-2.26   s1.01-2.26,2.26-2.26c1.24,0,2.26,1.01,2.26,2.26C33.08,51.24,32.07,52.26,30.83,52.26z"/><path display="inline" fill="#000000" d="M75.7,43.48c-0.851-0.85-1.83-1.51-2.931-1.98c-1.14-0.48-2.35-0.73-3.59-0.73   s-2.449,0.25-3.59,0.73c-1.1,0.46-2.08,1.13-2.93,1.98s-1.51,1.83-1.98,2.93C60.2,47.55,59.95,48.76,59.95,50   s0.239,2.45,0.729,3.59c0.461,1.1,1.131,2.08,1.98,2.93c0.85,0.851,1.83,1.51,2.93,1.98c1.141,0.48,2.35,0.73,3.59,0.73   s2.45-0.24,3.59-0.73c1.101-0.46,2.08-1.13,2.931-1.98c0.85-0.85,1.51-1.83,1.97-2.93c0.48-1.14,0.73-2.35,0.73-3.59   s-0.24-2.45-0.73-3.59C77.21,45.31,76.54,44.32,75.7,43.48z M69.17,52.26c-1.25,0-2.26-1.01-2.26-2.26s1.01-2.26,2.26-2.26   c1.24,0,2.26,1.01,2.26,2.26C71.43,51.24,70.42,52.26,69.17,52.26z"/></g><g display="none"><path display="inline" fill="#000000" d="M59.8,66.76c-1.271-1.27-2.75-2.27-4.399-2.97c-1.711-0.72-3.521-1.09-5.391-1.09   c-1.87,0-3.68,0.37-5.39,1.09c-1.65,0.7-3.13,1.7-4.4,2.97s-2.27,2.75-2.97,4.4c-0.72,1.71-1.09,3.529-1.09,5.39   c0,1.921,1.56,3.479,3.48,3.479h20.74c1.92,0,3.479-1.559,3.479-3.479c0-1.87-0.369-3.68-1.09-5.39   C62.07,69.51,61.07,68.029,59.8,66.76z M44.06,73.07c1.2-2.03,3.41-3.4,5.94-3.4c2.529,0,4.74,1.37,5.939,3.4H44.06z"/><path display="inline" fill="#000000" d="M91.45,32.49c-1.13-2.67-2.521-5.24-4.15-7.64c-1.61-2.38-3.46-4.62-5.489-6.66   c-2.031-2.04-4.271-3.88-6.66-5.49c-2.41-1.62-4.98-3.02-7.641-4.15C61.96,6.2,56.07,5.01,50,5.01c-6.07,0-11.96,1.19-17.51,3.54   c-2.67,1.13-5.24,2.52-7.64,4.15c-2.38,1.61-4.62,3.46-6.66,5.49c-2.04,2.03-3.88,4.27-5.49,6.66c-1.62,2.41-3.02,4.98-4.15,7.64   C6.2,38.04,5.01,43.93,5.01,50c0,6.07,1.19,11.96,3.54,17.51c1.13,2.67,2.52,5.24,4.15,7.641c1.61,2.379,3.46,4.619,5.49,6.66   c2.03,2.039,4.27,3.879,6.66,5.489c2.41,1.62,4.98,3.021,7.64,4.15c5.55,2.35,11.44,3.54,17.51,3.54c6.07,0,11.96-1.19,17.51-3.54   c2.67-1.13,5.24-2.521,7.641-4.15c2.379-1.61,4.619-3.46,6.66-5.489c2.039-2.031,3.879-4.271,5.489-6.66   c1.62-2.41,3.021-4.98,4.15-7.641C93.8,61.96,94.99,56.07,94.99,50C94.99,43.93,93.8,38.04,91.45,32.49z M50,88.02   c-20.96,0-38.02-17.06-38.02-38.02S29.04,11.98,50,11.98S88.02,29.04,88.02,50S70.96,88.02,50,88.02z"/><path display="inline" fill="#000000" d="M71.51,42.13c-0.07,0.02-0.14,0.05-0.21,0.08l-8.94,3.4c-0.129,0.05-0.26,0.1-0.379,0.16   l0,0c-0.021,0.01-0.041,0.02-0.061,0.03c-0.01,0-0.01,0.01-0.02,0.01c-0.01,0.01-0.021,0.01-0.041,0.02   c-0.01,0.01-0.029,0.02-0.039,0.02c0,0,0,0-0.01,0c-0.24,0.14-0.461,0.3-0.66,0.49l0,0c-0.01,0.01-0.021,0.02-0.03,0.03   c-0.011,0.01-0.021,0.02-0.03,0.03c0,0,0,0-0.01,0.01c-0.471,0.47-0.811,1.08-0.95,1.79c-0.11,0.58-0.17,1.18-0.17,1.78   c0,1.241,0.24,2.45,0.729,3.59c0.461,1.1,1.131,2.08,1.971,2.93c0.85,0.85,1.83,1.51,2.93,1.98c1.141,0.479,2.35,0.729,3.59,0.729   s2.45-0.239,3.59-0.729c1.101-0.461,2.08-1.131,2.931-1.98c0.85-0.85,1.51-1.83,1.979-2.93c0.48-1.141,0.73-2.35,0.73-3.59   c0-0.97-0.16-1.94-0.46-2.86l1.28-0.49c1.799-0.68,2.699-2.7,2.02-4.5c-0.68-1.8-2.7-2.7-4.49-2.02L71.51,42.13z M71.43,50   c0,1.24-1.01,2.26-2.26,2.26c-0.8,0-1.51-0.42-1.91-1.05l4.141-1.57C71.42,49.75,71.43,49.87,71.43,50z"/><path display="inline" fill="#000000" d="M39.32,53.59c0.48-1.14,0.73-2.35,0.73-3.59c0-0.6-0.06-1.19-0.17-1.78   c-0.14-0.7-0.47-1.31-0.94-1.78l-0.01-0.01c-0.01-0.01-0.02-0.02-0.03-0.03c-0.22-0.22-0.48-0.41-0.76-0.57   c-0.01,0-0.02-0.01-0.03-0.02c-0.01-0.01-0.02-0.01-0.03-0.02c-0.02-0.01-0.04-0.02-0.05-0.03c0,0-0.01,0-0.01-0.01   c-0.12-0.06-0.25-0.11-0.37-0.16l-8.94-3.4c-0.07-0.03-0.14-0.06-0.21-0.08l-5.24-1.99c-1.8-0.68-3.81,0.22-4.5,2.02   c-0.68,1.8,0.22,3.81,2.021,4.5l1.28,0.49c-0.3,0.92-0.46,1.89-0.46,2.86c0,1.24,0.24,2.449,0.73,3.59   c0.46,1.1,1.13,2.08,1.98,2.93s1.83,1.51,2.93,1.98c1.14,0.48,2.35,0.73,3.59,0.73c1.24,0,2.45-0.24,3.59-0.73   c1.1-0.461,2.08-1.131,2.93-1.98C38.19,55.68,38.86,54.689,39.32,53.59z M30.83,52.26c-1.25,0-2.26-1.01-2.26-2.26   c0-0.13,0.01-0.25,0.03-0.37l4.14,1.57C32.33,51.83,31.63,52.26,30.83,52.26z"/></g><g display="none"><g display="inline"><path fill="#000000" d="M50,94.99c-6.07,0-11.96-1.19-17.51-3.54c-2.67-1.13-5.24-2.521-7.64-4.15    c-2.38-1.61-4.62-3.46-6.66-5.489c-2.04-2.031-3.88-4.271-5.49-6.66c-1.62-2.41-3.02-4.98-4.15-7.641    C6.2,61.96,5.01,56.07,5.01,50c0-6.07,1.19-11.96,3.54-17.51c1.13-2.67,2.52-5.24,4.15-7.64c1.61-2.38,3.46-4.62,5.49-6.66    c2.03-2.04,4.27-3.88,6.66-5.49c2.41-1.62,4.98-3.02,7.64-4.15C38.04,6.2,43.93,5.01,50,5.01c6.07,0,11.96,1.19,17.51,3.54    c2.67,1.13,5.24,2.52,7.641,4.15c2.379,1.61,4.619,3.46,6.66,5.49c2.039,2.04,3.879,4.27,5.489,6.66    c1.62,2.41,3.021,4.98,4.15,7.64c2.35,5.55,3.54,11.44,3.54,17.51c0,6.07-1.19,11.96-3.54,17.51c-1.13,2.67-2.521,5.24-4.15,7.641    c-1.61,2.379-3.46,4.619-5.489,6.66c-2.031,2.039-4.271,3.879-6.66,5.489c-2.41,1.62-4.98,3.021-7.641,4.15    C61.96,93.8,56.07,94.99,50,94.99L50,94.99z M50,11.98c-20.96,0-38.02,17.06-38.02,38.02S29.04,88.02,50,88.02    S88.02,70.96,88.02,50S70.96,11.98,50,11.98L50,11.98z"/></g><g display="inline"><g><path fill="#000000" d="M30.03,58.73c-1.24,0-2.45-0.24-3.59-0.73c-1.1-0.46-2.08-1.13-2.93-1.971     C22.66,55.18,22,54.2,21.53,53.1c-0.48-1.14-0.73-2.35-0.73-3.59c0-1.24,0.24-2.45,0.73-3.59c0.46-1.1,1.13-2.08,1.98-2.93     c0.85-0.85,1.83-1.51,2.93-1.98c1.14-0.48,2.35-0.73,3.59-0.73c1.24,0,2.45,0.24,3.59,0.73c1.1,0.46,2.08,1.13,2.93,1.98     c0.85,0.85,1.51,1.83,1.98,2.93c0.48,1.14,0.73,2.35,0.73,3.59c0,1.24-0.24,2.45-0.73,3.59c-0.46,1.101-1.13,2.08-1.98,2.93     C35.7,56.88,34.72,57.54,33.62,58C32.48,58.49,31.27,58.73,30.03,58.73L30.03,58.73z M30.03,47.25c-1.24,0-2.26,1.01-2.26,2.26     s1.01,2.26,2.26,2.26s2.26-1.01,2.26-2.26S31.27,47.25,30.03,47.25L30.03,47.25z"/></g><g><path fill="#000000" d="M68.38,58.73c-1.239,0-2.45-0.24-3.59-0.73c-1.101-0.46-2.08-1.13-2.931-1.971     c-0.85-0.85-1.51-1.829-1.979-2.93c-0.479-1.14-0.729-2.35-0.729-3.59c0-1.24,0.24-2.45,0.729-3.59     c0.46-1.1,1.13-2.08,1.979-2.93c0.851-0.85,1.83-1.51,2.931-1.98c1.14-0.48,2.351-0.73,3.59-0.73c1.24,0,2.45,0.24,3.591,0.73     c1.1,0.46,2.079,1.13,2.93,1.98c0.85,0.85,1.51,1.83,1.979,2.93c0.479,1.14,0.729,2.35,0.729,3.59c0,1.24-0.239,2.45-0.729,3.59     c-0.46,1.101-1.13,2.08-1.979,2.93C74.05,56.88,73.07,57.54,71.971,58C70.83,58.49,69.62,58.73,68.38,58.73L68.38,58.73z      M68.38,47.25c-1.239,0-2.26,1.01-2.26,2.26s1.01,2.26,2.26,2.26s2.261-1.01,2.261-2.26C70.63,48.26,69.62,47.25,68.38,47.25     L68.38,47.25z"/></g></g></g><g display="none"><path display="inline" fill="#000000" d="M91.87,64.12c-0.89-0.89-1.92-1.58-3.08-2.04c-1.12-0.45-2.29-0.68-3.5-0.68   s-2.39,0.229-3.5,0.68c-0.21,0.08-0.42,0.18-0.62,0.279c-0.199-0.1-0.41-0.189-0.62-0.279c-1.12-0.45-2.29-0.68-3.5-0.68   s-2.39,0.229-3.5,0.68c-1.159,0.47-2.19,1.16-3.079,2.04c-0.891,0.88-1.58,1.92-2.041,3.08c-0.449,1.12-0.68,2.29-0.68,3.5   s0.23,2.39,0.68,3.5c0.471,1.159,1.16,2.19,2.041,3.079l8.239,8.24c0.681,0.681,1.569,1.021,2.46,1.021s1.78-0.34,2.46-1.021   l8.24-8.24c0.89-0.889,1.58-1.92,2.04-3.079c0.449-1.12,0.68-2.29,0.68-3.5s-0.23-2.39-0.68-3.5C93.439,66.04,92.76,65,91.87,64.12   z M86.939,72.35l-5.779,5.78l-5.78-5.78c-0.44-0.439-0.69-1.029-0.69-1.66c0-0.629,0.24-1.209,0.69-1.66   c0.44-0.439,1.03-0.689,1.66-0.689s1.21,0.24,1.66,0.689c0.649,0.65,1.54,1.021,2.46,1.021s1.811-0.37,2.46-1.021   c0.44-0.439,1.03-0.689,1.659-0.689c0.621,0,1.211,0.24,1.66,0.689C87.85,69.96,87.85,71.439,86.939,72.35z"/><path display="inline" fill="#000000" d="M24.35,40.27c0.41,0,0.83-0.07,1.24-0.23l10.13-3.86c1.8-0.68,2.7-2.7,2.02-4.5   c-0.68-1.8-2.7-2.7-4.49-2.02l-10.13,3.86c-1.8,0.68-2.7,2.7-2.02,4.5C21.63,39.41,22.95,40.27,24.35,40.27z"/><path display="inline" fill="#000000" d="M77.02,33.53l-10.129-3.86c-1.801-0.68-3.811,0.22-4.5,2.02   c-0.681,1.8,0.219,3.81,2.02,4.5l10.13,3.86c0.41,0.16,0.83,0.23,1.239,0.23c1.4,0,2.73-0.86,3.261-2.25   C79.721,36.22,78.811,34.21,77.02,33.53z"/><path display="inline" fill="#000000" d="M67.92,83.54C62.45,86.471,56.25,88.02,50,88.02c-20.97,0-38.02-17.06-38.02-38.02   S29.03,11.98,50,11.98c20.96,0,38.02,17.06,38.02,38.02c0,1.7-0.109,3.41-0.34,5.08c-0.25,1.91,1.08,3.66,2.99,3.91   c0.16,0.02,0.311,0.029,0.46,0.029c1.72,0,3.21-1.27,3.45-3.02c0.26-1.98,0.4-4,0.4-6c0-6.07-1.19-11.96-3.541-17.51   c-1.129-2.67-2.52-5.24-4.149-7.64c-1.61-2.38-3.46-4.62-5.49-6.66s-4.271-3.88-6.659-5.49c-2.41-1.62-4.98-3.02-7.641-4.15   C61.96,6.2,56.07,5.01,50,5.01c-6.07,0-11.96,1.19-17.51,3.54c-2.67,1.13-5.24,2.52-7.64,4.15c-2.38,1.61-4.62,3.46-6.66,5.49   c-2.04,2.04-3.88,4.27-5.49,6.66c-1.62,2.41-3.02,4.98-4.15,7.64C6.2,38.04,5.01,43.93,5.01,50c0,6.07,1.19,11.96,3.54,17.51   c1.13,2.67,2.52,5.24,4.15,7.641c1.61,2.379,3.46,4.619,5.49,6.66c2.03,2.039,4.27,3.879,6.66,5.489   c2.41,1.62,4.98,3.021,7.64,4.15c5.55,2.35,11.44,3.54,17.51,3.54c3.76,0,7.49-0.461,11.1-1.381c3.51-0.889,6.91-2.209,10.101-3.92   c1.7-0.91,2.329-3.02,1.43-4.719C71.721,83.279,69.609,82.641,67.92,83.54z"/><path display="inline" fill="#000000" d="M66.971,50c0-1.24,1.01-2.26,2.26-2.26s2.26,1.01,2.26,2.26c0,1.92,1.56,3.48,3.48,3.48   c1.92,0,3.479-1.561,3.479-3.48c0-1.24-0.25-2.45-0.729-3.59c-0.461-1.1-1.131-2.08-1.98-2.93s-1.83-1.51-2.93-1.98   c-1.141-0.48-2.351-0.73-3.59-0.73c-1.24,0-2.451,0.25-3.591,0.73c-1.101,0.46-2.08,1.13-2.93,1.98   c-0.851,0.85-1.511,1.83-1.979,2.93c-0.48,1.14-0.73,2.35-0.73,3.59c0,1.92,1.56,3.48,3.48,3.48   C65.391,53.48,66.971,51.92,66.971,50z"/><path display="inline" fill="#000000" d="M24.44,53.55c1.92,0,3.48-1.56,3.48-3.48c0-1.25,1.01-2.26,2.26-2.26   c1.24,0,2.26,1.01,2.26,2.26c0,1.92,1.56,3.48,3.48,3.48s3.48-1.56,3.48-3.48c0-1.24-0.24-2.45-0.73-3.59   c-0.46-1.1-1.13-2.08-1.98-2.93c-0.85-0.85-1.83-1.51-2.93-1.98c-1.14-0.48-2.35-0.73-3.59-0.73c-1.24,0-2.45,0.24-3.59,0.73   c-1.1,0.46-2.08,1.13-2.93,1.98c-0.85,0.85-1.51,1.83-1.98,2.93c-0.48,1.14-0.73,2.35-0.73,3.59   C20.95,51.99,22.51,53.55,24.44,53.55z"/><path display="inline" fill="#000000" d="M51.84,78.66c-2.13,0-3.87-1.74-3.87-3.87c0-1.92-1.56-3.479-3.48-3.479   c-1.92,0-3.48,1.56-3.48,3.479c0,1.46,0.29,2.88,0.85,4.22c0.55,1.29,1.33,2.45,2.32,3.44c0.99,0.989,2.15,1.78,3.44,2.319   c1.34,0.57,2.76,0.851,4.22,0.851s2.881-0.29,4.221-0.851c1.289-0.549,2.449-1.33,3.439-2.319c0.99-0.99,1.77-2.15,2.32-3.44   c0.57-1.34,0.85-2.76,0.85-4.22c0-1.5-0.3-2.95-0.9-4.319c-0.16-0.371-0.34-0.721-0.529-1.061c0.77-1.48,1.17-3.141,1.17-4.84   c0-1.43-0.28-2.811-0.83-4.12c-0.53-1.261-1.29-2.39-2.26-3.36c-0.971-0.97-2.1-1.73-3.36-2.26C54.65,54.279,53.27,54,51.84,54   s-2.81,0.279-4.12,0.83c-1.26,0.529-2.39,1.29-3.36,2.26c-0.97,0.971-1.73,2.1-2.27,3.36c-0.55,1.31-0.83,2.69-0.83,4.12   c0,1.92,1.56,3.479,3.48,3.479c1.92,0,3.48-1.56,3.48-3.479c0-1.99,1.62-3.61,3.61-3.61s3.609,1.62,3.609,3.61   c0,0.939-0.359,1.83-1.02,2.51c-0.641,0.67-1,1.561-0.98,2.49c0.021,0.93,0.4,1.81,1.07,2.449c0.77,0.74,1.19,1.73,1.19,2.791   C55.71,76.92,53.98,78.66,51.84,78.66z"/></g><g display="none"><path display="inline" fill="#000000" d="M91.45,32.49c-1.13-2.67-2.521-5.24-4.15-7.64c-1.61-2.38-3.46-4.62-5.489-6.66   c-2.031-2.04-4.271-3.88-6.66-5.49c-2.41-1.62-4.98-3.02-7.641-4.15C61.96,6.2,56.07,5.01,50,5.01c-6.07,0-11.96,1.19-17.51,3.54   c-2.67,1.13-5.24,2.52-7.64,4.15c-2.38,1.61-4.62,3.46-6.66,5.49c-2.04,2.03-3.88,4.27-5.49,6.66c-1.62,2.41-3.02,4.98-4.15,7.64   C6.2,38.04,5.01,43.93,5.01,50c0,6.07,1.19,11.96,3.54,17.51c1.13,2.67,2.52,5.24,4.15,7.641c1.61,2.379,3.46,4.619,5.49,6.66   c2.03,2.039,4.27,3.879,6.66,5.489c2.41,1.62,4.98,3.021,7.64,4.15c5.54,2.34,11.43,3.53,17.49,3.54c0.01,0,0.01,0,0.02,0l0,0l0,0   c6.07,0,11.96-1.19,17.51-3.54c2.67-1.13,5.24-2.521,7.641-4.15c2.379-1.61,4.619-3.46,6.66-5.489   c2.039-2.031,3.879-4.271,5.489-6.66c1.62-2.41,3.021-4.98,4.15-7.641C93.8,61.96,94.99,56.07,94.99,50   C94.99,43.93,93.8,38.04,91.45,32.49z M34.95,71.811c-2.21-0.851-3.99-2.57-4.93-4.74h4.93V71.811z M41.91,79.93V67.08h16.18v12.85   c0,4.461-3.63,8.09-8.09,8.09l0,0C45.54,88.02,41.91,84.391,41.91,79.93z M69.99,67.08c-0.94,2.17-2.721,3.88-4.93,4.74v-4.74   H69.99z M64.061,85.33c0.66-1.721,1-3.53,1-5.391v-0.879c1.02-0.211,2.02-0.521,2.989-0.931c1.88-0.79,3.56-1.93,5.011-3.38   c1.449-1.45,2.58-3.13,3.379-5.01c0.82-1.95,1.24-4.01,1.24-6.141c0-1.92-1.56-3.479-3.479-3.479H61.57H38.43H25.81   c-1.92,0-3.48,1.56-3.48,3.479c0,2.131,0.42,4.19,1.24,6.141c0.79,1.88,1.93,3.56,3.38,5.01c1.45,1.45,3.13,2.58,5.01,3.38   c0.97,0.41,1.97,0.72,2.99,0.931v0.879c0,1.86,0.33,3.67,1,5.391C21.92,79.73,11.98,66,11.98,50c0-20.96,17.06-38.02,38.02-38.02   S88.02,29.04,88.02,50C88.02,66,78.08,79.73,64.061,85.33z"/><path display="inline" fill="#000000" d="M72.57,33.08c-1.42-0.6-2.93-0.91-4.48-0.91c-1.55,0-3.061,0.31-4.48,0.91   c-1.369,0.58-2.6,1.41-3.659,2.47c-1.06,1.06-1.89,2.29-2.47,3.66c-0.601,1.42-0.91,2.93-0.91,4.48c0,1.55,0.3,3.06,0.91,4.48   c0.58,1.37,1.41,2.6,2.47,3.66s2.29,1.891,3.659,2.47c1.42,0.601,2.931,0.91,4.48,0.91c1.551,0,3.061-0.3,4.48-0.91   c1.369-0.579,2.6-1.409,3.66-2.47c1.06-1.061,1.89-2.29,2.47-3.66c0.6-1.42,0.909-2.93,0.909-4.48c0-1.55-0.299-3.06-0.909-4.48   c-0.58-1.37-1.41-2.6-2.47-3.66C75.17,34.49,73.939,33.66,72.57,33.08z M68.09,48.23c-2.51,0-4.55-2.04-4.55-4.55   c0-2.51,2.04-4.55,4.55-4.55s4.551,2.04,4.551,4.55C72.63,46.19,70.59,48.23,68.09,48.23z"/><path display="inline" fill="#000000" d="M36.53,43.41c-0.85-0.85-1.83-1.51-2.93-1.97c-1.14-0.48-2.35-0.73-3.59-0.73   c-1.24,0-2.45,0.24-3.59,0.73c-1.1,0.46-2.08,1.13-2.93,1.97c-0.85,0.85-1.51,1.83-1.98,2.93c-0.48,1.14-0.73,2.35-0.73,3.59   c0,1.919,1.56,3.48,3.48,3.48c1.92,0,3.48-1.561,3.48-3.48c0-1.25,1.01-2.26,2.26-2.26c1.24,0,2.26,1.01,2.26,2.26   c0,1.919,1.56,3.48,3.48,3.48c1.92,0,3.48-1.561,3.48-3.48c0-1.24-0.24-2.45-0.73-3.59C38.04,45.24,37.38,44.26,36.53,43.41z"/></g><g><g><g><g><path d="M24.29,35.16c-1.4,0-2.73-0.85-3.26-2.25c-0.68-1.8,0.22-3.81,2.02-4.5l10.13-3.86c1.8-0.68,3.81,0.22,4.49,2.02      c0.68,1.8-0.22,3.81-2.02,4.5l-10.13,3.86C25.12,35.08,24.7,35.16,24.29,35.16L24.29,35.16z"/></g><g><path d="M75.71,35.16c-0.41,0-0.83-0.07-1.239-0.23L64.34,31.07c-1.8-0.68-2.699-2.7-2.02-4.5c0.68-1.8,2.699-2.7,4.5-2.02      l10.13,3.86c1.8,0.68,2.7,2.7,2.021,4.5C78.439,34.3,77.12,35.16,75.71,35.16L75.71,35.16z"/></g></g><g><g><path d="M68.54,61.54c-1.55,0-3.06-0.3-4.479-0.91c-1.371-0.58-2.601-1.409-3.66-2.47C59.34,57.1,58.51,55.87,57.93,54.5      c-0.6-1.42-0.91-2.93-0.91-4.48c0-1.55,0.301-3.06,0.91-4.48c0.58-1.37,1.41-2.6,2.471-3.66c1.06-1.06,2.289-1.89,3.66-2.47      c1.42-0.6,2.93-0.91,4.479-0.91s3.06,0.31,4.479,0.91c1.371,0.58,2.601,1.41,3.66,2.47c1.061,1.06,1.891,2.29,2.471,3.66      c0.6,1.42,0.91,2.93,0.91,4.48c0,1.55-0.301,3.06-0.91,4.48c-0.58,1.37-1.41,2.6-2.471,3.66c-1.06,1.061-2.289,1.89-3.66,2.47      C71.6,61.23,70.1,61.54,68.54,61.54L68.54,61.54z M68.54,45.47c-2.511,0-4.55,2.04-4.55,4.55c0,2.509,2.039,4.55,4.55,4.55      c2.51,0,4.55-2.041,4.55-4.55C73.09,47.51,71.05,45.47,68.54,45.47L68.54,45.47z"/></g><g><path d="M31.46,61.54c-1.55,0-3.06-0.3-4.48-0.91c-1.37-0.58-2.6-1.409-3.66-2.47s-1.89-2.29-2.47-3.66      c-0.6-1.42-0.91-2.93-0.91-4.48c0-1.55,0.31-3.06,0.91-4.48c0.58-1.37,1.41-2.6,2.47-3.66s2.29-1.89,3.66-2.47      c1.42-0.6,2.93-0.91,4.48-0.91s3.06,0.31,4.48,0.91c1.37,0.58,2.6,1.41,3.66,2.47s1.89,2.29,2.47,3.66      c0.6,1.42,0.91,2.93,0.91,4.48c0,1.55-0.3,3.06-0.91,4.48c-0.58,1.37-1.41,2.6-2.47,3.66s-2.29,1.89-3.66,2.47      C34.52,61.23,33.01,61.54,31.46,61.54L31.46,61.54z M31.46,45.47c-2.51,0-4.55,2.04-4.55,4.55c0,2.509,2.04,4.55,4.55,4.55      c2.51,0,4.54-2.041,4.54-4.55C36,47.51,33.96,45.47,31.46,45.47L31.46,45.47z"/></g></g><g><path d="M50,94.99c-6.07,0-11.96-1.19-17.51-3.54c-2.67-1.13-5.24-2.521-7.64-4.15c-2.38-1.61-4.62-3.46-6.66-5.489     c-2.04-2.031-3.88-4.271-5.49-6.66c-1.62-2.41-3.02-4.98-4.15-7.641C6.2,61.96,5.01,56.07,5.01,50c0-6.07,1.19-11.96,3.54-17.51     c1.13-2.67,2.52-5.24,4.15-7.64c1.61-2.38,3.46-4.62,5.49-6.66c2.03-2.04,4.27-3.88,6.66-5.49c2.41-1.62,4.98-3.02,7.64-4.15     C38.04,6.2,43.93,5.01,50,5.01c6.07,0,11.96,1.19,17.51,3.54c2.67,1.13,5.24,2.52,7.641,4.15c2.379,1.61,4.619,3.46,6.66,5.49     c2.039,2.03,3.879,4.27,5.489,6.66c1.62,2.41,3.021,4.98,4.15,7.64c2.35,5.55,3.54,11.44,3.54,17.51     c0,6.07-1.19,11.96-3.54,17.51c-1.13,2.67-2.521,5.24-4.15,7.641c-1.61,2.379-3.46,4.619-5.489,6.66     c-2.031,2.039-4.271,3.879-6.66,5.489c-2.4,1.62-4.98,3.021-7.641,4.15C61.96,93.8,56.07,94.99,50,94.99L50,94.99z M50,11.98     c-20.96,0-38.02,17.06-38.02,38.02S29.04,88.02,50,88.02S88.02,70.96,88.02,50S70.96,11.98,50,11.98L50,11.98z"/></g></g><g><path d="M56.641,78.1H43.36c-1.92,0-3.48-1.56-3.48-3.479s1.56-3.479,3.48-3.479h13.281c1.92,0,3.479,1.56,3.479,3.479    S58.561,78.1,56.641,78.1L56.641,78.1z"/></g></g><g display="none"><path display="inline" fill="#000000" d="M25.08,44.94c1.92,0,3.48-1.56,3.48-3.48c0-1.24,1.01-2.26,2.26-2.26s2.26,1.01,2.26,2.26   c0,1.92,1.56,3.48,3.48,3.48s3.48-1.56,3.48-3.48c0-1.24-0.24-2.45-0.73-3.59c-0.46-1.1-1.13-2.08-1.98-2.93s-1.83-1.51-2.93-1.98   c-1.14-0.48-2.35-0.73-3.59-0.73c-1.24,0-2.45,0.24-3.59,0.73c-1.1,0.46-2.08,1.13-2.93,1.98s-1.51,1.83-1.98,2.93   c-0.48,1.14-0.73,2.35-0.73,3.59C21.6,43.38,23.16,44.94,25.08,44.94z"/><path display="inline" fill="#000000" d="M72.77,32.96c-1.14-0.48-2.35-0.73-3.59-0.73s-2.449,0.24-3.59,0.73   c-1.1,0.46-2.08,1.13-2.93,1.98s-1.51,1.83-1.98,2.93c-0.479,1.14-0.729,2.35-0.729,3.59c0,1.92,1.56,3.48,3.479,3.48   s3.48-1.56,3.48-3.48c0-1.24,1.01-2.26,2.26-2.26s2.26,1.01,2.26,2.26c0,1.92,1.561,3.48,3.48,3.48s3.48-1.56,3.48-3.48   c0-1.24-0.24-2.45-0.73-3.59c-0.46-1.1-1.131-2.08-1.971-2.93S73.87,33.43,72.77,32.96z"/><path display="inline" fill="#000000" d="M91.45,32.49c-1.13-2.67-2.521-5.24-4.15-7.64c-1.61-2.38-3.46-4.62-5.489-6.66   c-2.031-2.04-4.271-3.88-6.66-5.49c-2.41-1.62-4.98-3.02-7.641-4.15C61.96,6.2,56.07,5.01,50,5.01c-6.07,0-11.96,1.19-17.51,3.54   c-2.67,1.13-5.24,2.52-7.64,4.15c-2.38,1.61-4.62,3.46-6.66,5.49c-2.04,2.03-3.88,4.27-5.49,6.66c-1.62,2.41-3.02,4.98-4.15,7.64   C6.2,38.04,5.01,43.93,5.01,50c0,6.07,1.19,11.96,3.54,17.51c1.13,2.67,2.52,5.24,4.15,7.641c1.61,2.379,3.46,4.619,5.49,6.66   c2.04,2.039,4.27,3.879,6.66,5.489c2.41,1.62,4.98,3.021,7.64,4.15c5.55,2.35,11.44,3.54,17.51,3.54c6.07,0,11.96-1.19,17.51-3.54   c2.67-1.13,5.24-2.521,7.641-4.15c2.379-1.61,4.619-3.46,6.66-5.489c2.039-2.031,3.879-4.271,5.489-6.66   c1.62-2.41,3.021-4.98,4.15-7.641C93.8,61.96,94.99,56.07,94.99,50C94.99,43.93,93.8,38.04,91.45,32.49z M50,88.02   c-20.96,0-38.02-17.06-38.02-38.02S29.04,11.98,50,11.98S88.02,29.04,88.02,50S70.96,88.02,50,88.02z"/><path display="inline" fill="#000000" d="M72.27,51.779c-1.51-0.639-3.119-0.959-4.77-0.959H32.47c-1.65,0-3.25,0.32-4.77,0.959   c-1.46,0.621-2.77,1.5-3.89,2.621c-1.12,1.119-2.01,2.43-2.62,3.89c-0.64,1.51-0.96,3.12-0.96,4.771c0,1.649,0.32,3.25,0.96,4.77   c0.62,1.46,1.5,2.77,2.62,3.891c1.12,1.119,2.43,2.01,3.89,2.619c1.51,0.641,3.12,0.96,4.77,0.96H67.5c1.65,0,3.25-0.319,4.77-0.96   c1.461-0.619,2.771-1.5,3.891-2.619c1.119-1.121,2-2.431,2.619-3.891c0.641-1.51,0.961-3.12,0.961-4.77   c0-1.65-0.32-3.261-0.961-4.771c-0.619-1.46-1.5-2.771-2.619-3.89C75.04,53.279,73.73,52.4,72.27,51.779z M53.471,57.779h6.17   V68.33h-6.17V57.779z M46.5,68.33h-6.17V57.779h6.17V68.33z M27.19,63.061c0-2.91,2.37-5.281,5.28-5.281h0.9V68.33h-0.9   C29.56,68.33,27.19,65.971,27.19,63.061z M67.5,68.33h-0.9V57.779h0.9c2.91,0,5.279,2.371,5.279,5.281S70.41,68.33,67.5,68.33z"/></g><g display="none"><path display="inline" fill="#000000" d="M91.45,32.49c-1.13-2.67-2.521-5.24-4.15-7.64c-1.61-2.38-3.46-4.62-5.489-6.66   c-2.031-2.04-4.271-3.88-6.66-5.49c-2.41-1.62-4.98-3.02-7.641-4.15C61.96,6.2,56.07,5.01,50,5.01c-6.07,0-11.96,1.19-17.51,3.54   c-2.67,1.13-5.24,2.52-7.64,4.15c-2.38,1.61-4.62,3.46-6.66,5.49c-2.04,2.03-3.88,4.27-5.49,6.66c-1.62,2.41-3.02,4.98-4.15,7.64   C6.2,38.04,5.01,43.93,5.01,50c0,6.07,1.19,11.96,3.54,17.51c1.13,2.67,2.52,5.24,4.15,7.641c1.61,2.379,3.46,4.619,5.49,6.66   c2.04,2.039,4.27,3.879,6.66,5.489c2.41,1.62,4.98,3.021,7.64,4.15c5.55,2.35,11.44,3.54,17.51,3.54c6.07,0,11.96-1.19,17.51-3.54   c2.67-1.13,5.24-2.521,7.641-4.15c2.379-1.61,4.619-3.46,6.66-5.489c2.039-2.031,3.879-4.271,5.489-6.66   c1.62-2.41,3.021-4.98,4.15-7.641C93.8,61.96,94.99,56.07,94.99,50C94.99,43.93,93.8,38.04,91.45,32.49z M22.95,76.7V50.85   c0-1.709,1.39-3.109,3.11-3.109c1.72,0,3.11,1.39,3.11,3.109v30.94C26.92,80.32,24.84,78.609,22.95,76.7z M63.87,73.811   c-0.31,0.18-0.63,0.359-0.95,0.529c-0.16-0.6-0.359-1.18-0.6-1.76c-0.67-1.59-1.641-3.02-2.86-4.25   c-1.229-1.23-2.66-2.189-4.25-2.859C53.561,64.77,51.811,64.42,50,64.42c-1.81,0-3.55,0.35-5.21,1.051   c-1.59,0.67-3.02,1.639-4.25,2.859c-1.23,1.23-2.19,2.66-2.86,4.25c-0.24,0.57-0.44,1.16-0.6,1.76c-0.32-0.17-0.63-0.34-0.94-0.529   v-12.5h27.73V73.811z M56.33,76.82C54.27,77.3,52.15,77.55,50,77.55c-2.15,0-4.27-0.25-6.33-0.729c0.47-3.07,3.13-5.44,6.33-5.44   S55.859,73.75,56.33,76.82z M36.14,85.4v-3.78c4.34,1.909,9.04,2.899,13.86,2.899c4.82,0,9.529-0.99,13.87-2.899v3.78   C59.57,87.09,54.891,88.02,50,88.02C45.11,88.02,40.43,87.09,36.14,85.4z M70.84,81.79V57.83l0,0l0,0v-6.98   c0-1.709,1.391-3.109,3.11-3.109c1.71,0,3.11,1.39,3.11,3.109v25.84C75.17,78.6,73.08,80.311,70.84,81.79z M84.02,66.971V50.85   c0-1.359-0.27-2.68-0.789-3.919c-0.51-1.2-1.23-2.28-2.16-3.2c-0.92-0.92-2-1.65-3.2-2.16c-1.24-0.53-2.56-0.79-3.92-0.79   s-2.681,0.27-3.921,0.79c-1.199,0.51-2.279,1.23-3.199,2.16c-0.92,0.92-1.65,2-2.16,3.2c-0.529,1.24-0.79,2.56-0.79,3.919v3.5   H36.14v-3.5c0-1.359-0.27-2.68-0.79-3.919c-0.51-1.2-1.23-2.28-2.16-3.2c-0.92-0.92-2-1.65-3.2-2.16   c-1.24-0.53-2.56-0.79-3.92-0.79c-1.36,0-2.68,0.27-3.92,0.79c-1.2,0.51-2.28,1.23-3.2,2.16c-0.92,0.92-1.65,2-2.16,3.2   C16.26,48.17,16,49.49,16,50.85V66.98C13.42,61.87,11.98,56.1,11.98,50c0-20.96,17.06-38.02,38.02-38.02S88.02,29.04,88.02,50   C88.02,56.1,86.58,61.859,84.02,66.971z"/><path display="inline" fill="#000000" d="M33.18,26.57l-10.13,3.86c-1.8,0.68-2.7,2.7-2.02,4.49c0.53,1.39,1.85,2.25,3.26,2.25   c0.41,0,0.83-0.07,1.24-0.23l10.13-3.86c1.8-0.68,2.7-2.7,2.02-4.49C36.99,26.78,34.98,25.88,33.18,26.57z"/><path display="inline" fill="#000000" d="M62.32,28.58c-0.68,1.8,0.22,3.81,2.02,4.49l10.131,3.86   c0.409,0.16,0.829,0.23,1.239,0.23c1.399,0,2.729-0.85,3.261-2.25c0.68-1.8-0.221-3.81-2.021-4.49l-10.13-3.86   C65.02,25.88,63.01,26.78,62.32,28.58z"/></g><g display="none"><path display="inline" fill="#000000" d="M91.45,32.49c-1.13-2.67-2.521-5.24-4.15-7.64c-1.61-2.38-3.46-4.62-5.489-6.66   c-2.031-2.04-4.271-3.88-6.66-5.49c-2.41-1.62-4.98-3.02-7.641-4.15C61.96,6.2,56.07,5.01,50,5.01c-6.07,0-11.96,1.19-17.51,3.54   c-2.67,1.13-5.24,2.52-7.64,4.15c-2.38,1.61-4.62,3.46-6.66,5.49c-2.04,2.04-3.88,4.27-5.49,6.66c-1.62,2.41-3.02,4.98-4.15,7.64   C6.2,38.04,5.01,43.93,5.01,50c0,6.07,1.19,11.96,3.54,17.51c1.13,2.67,2.52,5.24,4.15,7.641c1.61,2.379,3.46,4.619,5.49,6.66   c2.03,2.039,4.27,3.879,6.66,5.489c2.41,1.62,4.98,3.021,7.64,4.15c5.55,2.35,11.44,3.54,17.51,3.54c6.07,0,11.96-1.19,17.51-3.54   c2.67-1.13,5.24-2.521,7.641-4.15c2.379-1.61,4.619-3.46,6.66-5.489c2.039-2.031,3.879-4.271,5.489-6.66   c1.62-2.41,3.021-4.98,4.15-7.641C93.8,61.96,94.99,56.07,94.99,50C94.99,43.93,93.8,38.04,91.45,32.49z M22.95,76.689V50.85   c0-1.709,1.39-3.109,3.11-3.109c1.71,0,3.11,1.39,3.11,3.109v30.94C26.92,80.311,24.83,78.6,22.95,76.689z M70.83,81.79V50.85   c0-1.709,1.391-3.109,3.109-3.109c1.711,0,3.11,1.39,3.11,3.109v25.84C75.17,78.6,73.08,80.311,70.83,81.79z M84.02,66.98V50.85   c0-1.359-0.27-2.68-0.789-3.919c-0.51-1.2-1.23-2.28-2.16-3.2c-0.92-0.92-2-1.65-3.2-2.16c-1.24-0.53-2.56-0.79-3.92-0.79   s-2.681,0.27-3.921,0.79c-1.199,0.51-2.279,1.23-3.199,2.16c-0.92,0.92-1.65,2-2.16,3.2c-0.529,1.24-0.79,2.56-0.79,3.919V85.4   c-4.3,1.689-8.979,2.619-13.87,2.619c-4.89,0-9.57-0.93-13.87-2.619V50.85c0-1.359-0.27-2.68-0.79-3.919   c-0.51-1.2-1.23-2.28-2.16-3.2c-0.92-0.92-2-1.65-3.2-2.16c-1.24-0.53-2.56-0.79-3.92-0.79c-1.36,0-2.68,0.27-3.92,0.79   c-1.2,0.51-2.28,1.23-3.2,2.16c-0.92,0.92-1.65,2-2.16,3.2C16.26,48.17,16,49.49,16,50.85V66.98C13.42,61.859,11.98,56.1,11.98,50   c0-20.96,17.06-38.02,38.02-38.02S88.02,29.04,88.02,50C88.02,56.1,86.58,61.859,84.02,66.98z"/><path display="inline" fill="#000000" d="M37.67,28.58c-0.68-1.8-2.7-2.7-4.49-2.02l-10.13,3.86c-1.8,0.68-2.7,2.7-2.02,4.49   c0.53,1.39,1.85,2.25,3.26,2.25c0.41,0,0.83-0.07,1.24-0.23l10.13-3.86C37.46,32.39,38.36,30.38,37.67,28.58z"/><path display="inline" fill="#000000" d="M62.32,28.58c-0.68,1.8,0.22,3.81,2.02,4.49l10.131,3.86   c0.409,0.16,0.829,0.23,1.239,0.23c1.399,0,2.729-0.85,3.261-2.25c0.68-1.8-0.221-3.81-2.021-4.49l-10.13-3.86   C65.02,25.88,63.01,26.78,62.32,28.58z"/><path display="inline" fill="#000000" d="M58.65,57.08c-1.121-1.12-2.43-2.01-3.891-2.62c-1.51-0.64-3.119-0.97-4.76-0.97   c-1.65,0-3.25,0.33-4.76,0.97c-1.46,0.62-2.76,1.5-3.89,2.62c-1.12,1.12-2.01,2.43-2.62,3.891c-0.64,1.51-0.97,3.119-0.97,4.76   v7.549c0,1.65,0.33,3.25,0.97,4.761c0.62,1.46,1.5,2.76,2.62,3.89c1.12,1.12,2.43,2.01,3.89,2.62c1.51,0.64,3.12,0.97,4.76,0.97   c1.65,0,3.25-0.33,4.76-0.97c1.461-0.62,2.76-1.5,3.891-2.62c1.119-1.119,2.01-2.43,2.619-3.89c0.641-1.511,0.971-3.12,0.971-4.761   V65.73c0-1.65-0.33-3.25-0.971-4.76C60.66,59.51,59.77,58.21,58.65,57.08z M50,60.46c2.029,0,3.79,1.149,4.68,2.84h-9.35   C46.21,61.609,47.97,60.46,50,60.46z M50,78.561L50,78.561c-2.91,0-5.28-2.371-5.28-5.281V70.25H55.27v3.029   C55.279,76.189,52.91,78.561,50,78.561z"/></g><g display="none"><path display="inline" fill="#000000" d="M69.17,56.35c-1.24,0-2.449-0.24-3.59-0.729c-1.1-0.46-2.08-1.13-2.93-1.97   c-0.851-0.851-1.51-1.83-1.98-2.93c-0.48-1.141-0.73-2.351-0.73-3.591c0-1.92,1.561-3.48,3.48-3.48s3.48,1.56,3.48,3.48   c0,1.24,1.01,2.26,2.26,2.26s2.26-1.01,2.26-2.26c0-1.92,1.561-3.48,3.48-3.48s3.479,1.56,3.479,3.48   c0,1.24-0.239,2.45-0.729,3.591c-0.461,1.1-1.131,2.09-1.98,2.93c-0.85,0.85-1.83,1.51-2.93,1.97   C71.63,56.109,70.42,56.35,69.17,56.35L69.17,56.35z"/><path display="inline" fill="#000000" d="M30.83,56.35c-1.24,0-2.45-0.24-3.59-0.729c-1.1-0.46-2.08-1.13-2.93-1.97   s-1.51-1.83-1.98-2.93c-0.48-1.141-0.73-2.351-0.73-3.591c0-1.92,1.56-3.48,3.48-3.48s3.48,1.56,3.48,3.48   c0,1.24,1.01,2.26,2.26,2.26s2.26-1.01,2.26-2.26c0-1.92,1.56-3.48,3.48-3.48s3.48,1.56,3.48,3.48c0,1.24-0.24,2.45-0.73,3.591   c-0.46,1.1-1.13,2.09-1.98,2.93s-1.83,1.51-2.93,1.97C33.28,56.109,32.07,56.35,30.83,56.35L30.83,56.35z"/><path display="inline" fill="#000000" d="M50,94.99c-6.07,0-11.96-1.19-17.51-3.54c-2.67-1.13-5.24-2.521-7.64-4.15   c-2.38-1.61-4.62-3.46-6.66-5.489c-2.04-2.031-3.88-4.271-5.49-6.66c-1.62-2.41-3.02-4.98-4.15-7.641C6.2,61.96,5.01,56.07,5.01,50   c0-6.07,1.19-11.96,3.54-17.51c1.13-2.67,2.52-5.24,4.15-7.64c1.61-2.38,3.46-4.62,5.49-6.66c2.03-2.04,4.27-3.88,6.66-5.49   c2.41-1.62,4.98-3.02,7.64-4.15C38.04,6.2,43.93,5.01,50,5.01c2.18,0,4.37,0.16,6.51,0.47c1.9,0.28,3.221,2.04,2.95,3.95   c-0.25,1.73-1.739,2.98-3.44,2.98c-0.17,0-0.33-0.01-0.5-0.04c-1.81-0.26-3.66-0.4-5.51-0.4c-20.97,0-38.02,17.06-38.02,38.02   C11.99,70.95,29.03,88.02,50,88.02c20.96,0,38.02-17.06,38.02-38.02c0-3.86-0.58-7.66-1.709-11.31   c-0.57-1.84,0.459-3.79,2.289-4.36c1.84-0.57,3.791,0.45,4.36,2.29C94.3,40.94,94.98,45.44,94.98,50c0,6.07-1.19,11.96-3.541,17.51   c-1.129,2.67-2.52,5.24-4.149,7.641c-1.61,2.379-3.46,4.619-5.49,6.66c-2.04,2.039-4.271,3.879-6.659,5.489   c-2.41,1.62-4.98,3.021-7.641,4.15C61.96,93.8,56.07,94.99,50,94.99L50,94.99z"/><path display="inline" fill="#000000" d="M50,80.71c-1.53,0-3.02-0.3-4.42-0.89c-1.35-0.57-2.57-1.391-3.61-2.43   c-1.04-1.041-1.86-2.261-2.43-3.611c-0.59-1.399-0.89-2.889-0.89-4.42c0-1.529,0.3-3.02,0.89-4.42c0.57-1.35,1.39-2.569,2.43-3.609   c1.04-1.04,2.26-1.859,3.61-2.43c1.4-0.59,2.89-0.891,4.42-0.891c1.529,0,3.02,0.301,4.42,0.891c1.35,0.57,2.57,1.39,3.609,2.43   c1.041,1.04,1.861,2.26,2.431,3.609c0.59,1.4,0.89,2.891,0.89,4.42c0,1.531-0.3,3.021-0.89,4.42   c-0.569,1.351-1.39,2.57-2.431,3.611c-1.039,1.039-2.26,1.859-3.609,2.43C53.02,80.41,51.529,80.71,50,80.71L50,80.71z M50,64.96   c-2.42,0-4.39,1.97-4.39,4.39S47.58,73.74,50,73.74s4.391-1.971,4.391-4.391S52.42,64.96,50,64.96L50,64.96z"/><path display="inline" fill="#000000" d="M54.5,33.21h-8.44c-1.28,0-2.46-0.7-3.07-1.83c-0.61-1.13-0.55-2.5,0.15-3.57l4.9-7.46   h-1.98c-1.92,0-3.48-1.56-3.48-3.48s1.56-3.48,3.48-3.48h8.44c1.279,0,2.46,0.7,3.061,1.83c0.609,1.13,0.549,2.5-0.15,3.57   l-4.9,7.46h1.99c1.92,0,3.48,1.56,3.48,3.48S56.43,33.21,54.5,33.21L54.5,33.21z"/><path display="inline" fill="#000000" d="M71.24,33.21H62.8c-1.28,0-2.46-0.7-3.069-1.83c-0.61-1.13-0.551-2.5,0.149-3.57   l4.899-7.46H62.8c-1.92,0-3.479-1.56-3.479-3.48s1.56-3.48,3.479-3.48h8.44c1.279,0,2.46,0.7,3.06,1.83   c0.61,1.13,0.55,2.5-0.149,3.57l-4.9,7.46h1.99c1.92,0,3.48,1.56,3.48,3.48S73.16,33.21,71.24,33.21L71.24,33.21z"/><path display="inline" fill="#000000" d="M87.971,33.21h-8.441c-1.279,0-2.459-0.7-3.069-1.83s-0.55-2.5,0.149-3.57l4.9-7.46h-1.98   c-1.92,0-3.479-1.56-3.479-3.48s1.56-3.48,3.479-3.48h8.441c1.279,0,2.459,0.7,3.059,1.83c0.611,1.13,0.551,2.5-0.149,3.57   l-4.899,7.46h1.99c1.92,0,3.479,1.56,3.479,3.48S89.891,33.21,87.971,33.21L87.971,33.21z"/></g><g display="none"><path display="inline" fill="#000000" d="M50,94.99c-6.07,0-11.96-1.19-17.51-3.54c-2.67-1.13-5.24-2.521-7.64-4.15   c-2.38-1.61-4.62-3.46-6.66-5.489c-2.04-2.031-3.88-4.271-5.49-6.66c-1.62-2.41-3.02-4.98-4.15-7.641C6.2,61.96,5.01,56.07,5.01,50   c0-6.07,1.19-11.96,3.54-17.51c1.13-2.67,2.52-5.24,4.15-7.64c1.61-2.38,3.46-4.62,5.49-6.66c2.04-2.04,4.27-3.88,6.66-5.49   c2.41-1.62,4.98-3.02,7.64-4.15C38.04,6.2,43.93,5.01,50,5.01c6.07,0,11.96,1.19,17.51,3.54c2.67,1.13,5.24,2.52,7.641,4.15   c2.379,1.61,4.619,3.46,6.66,5.49c2.039,2.03,3.879,4.27,5.489,6.66c1.62,2.4,3.021,4.98,4.15,7.64   c2.35,5.55,3.54,11.44,3.54,17.51c0,6.07-1.19,11.96-3.54,17.51c-1.13,2.67-2.521,5.24-4.15,7.641   c-1.61,2.379-3.46,4.619-5.489,6.66c-2.031,2.039-4.271,3.879-6.66,5.489c-2.41,1.62-4.98,3.021-7.641,4.15   C61.96,93.8,56.07,94.99,50,94.99L50,94.99z M50,11.98c-20.96,0-38.02,17.06-38.02,38.02S29.04,88.02,50,88.02   S88.02,70.96,88.02,50S70.96,11.98,50,11.98L50,11.98z"/><g display="inline"><path fill="#000000" d="M30.83,59.221c-1.24,0-2.45-0.25-3.59-0.73c-1.1-0.461-2.08-1.131-2.93-1.98s-1.51-1.83-1.98-2.93    c-0.48-1.141-0.73-2.35-0.73-3.59s0.24-2.45,0.73-3.59c0.46-1.1,1.13-2.08,1.98-2.93c0.85-0.85,1.83-1.51,2.93-1.98    c1.14-0.48,2.35-0.73,3.59-0.73c1.24,0,2.45,0.24,3.59,0.73c1.1,0.46,2.08,1.13,2.93,1.98c0.85,0.85,1.51,1.83,1.97,2.93    c0.48,1.14,0.73,2.35,0.73,3.59s-0.24,2.449-0.73,3.59c-0.46,1.1-1.13,2.08-1.97,2.93c-0.85,0.85-1.83,1.51-2.93,1.98    C33.28,58.98,32.07,59.221,30.83,59.221L30.83,59.221z M30.83,47.74c-1.25,0-2.26,1.01-2.26,2.26c0,1.24,1.01,2.26,2.26,2.26    c1.24,0,2.26-1.01,2.26-2.26C33.08,48.76,32.07,47.74,30.83,47.74L30.83,47.74z"/></g><g display="inline"><path fill="#000000" d="M69.17,59.221c-1.24,0-2.449-0.25-3.59-0.73c-1.1-0.461-2.08-1.131-2.93-1.98    c-0.851-0.85-1.51-1.83-1.971-2.93c-0.479-1.141-0.729-2.35-0.729-3.59s0.239-2.45,0.729-3.59c0.461-1.1,1.131-2.08,1.971-2.93    c0.85-0.85,1.83-1.51,2.93-1.98c1.141-0.48,2.35-0.73,3.59-0.73s2.45,0.24,3.59,0.73c1.1,0.46,2.08,1.13,2.93,1.98    c0.851,0.85,1.511,1.83,1.98,2.93c0.48,1.14,0.73,2.35,0.73,3.59s-0.24,2.449-0.73,3.59c-0.46,1.1-1.13,2.08-1.98,2.93    c-0.85,0.85-1.83,1.51-2.93,1.98C71.63,58.98,70.42,59.221,69.17,59.221L69.17,59.221z M69.17,47.74c-1.24,0-2.26,1.01-2.26,2.26    c0,1.24,1.01,2.26,2.26,2.26s2.26-1.01,2.26-2.26C71.43,48.76,70.42,47.74,69.17,47.74L69.17,47.74z"/></g><path display="inline" fill="#000000" d="M50,79.15c-1.93,0-3.81-0.381-5.58-1.131c-1.71-0.72-3.24-1.75-4.55-3.069   c-1.32-1.31-2.35-2.851-3.07-4.55c-0.75-1.771-1.13-3.65-1.13-5.58c0-1.69,0.7-3.24,2.02-4.5c0.92-0.87,2.14-1.59,3.65-2.141   c2.34-0.859,5.42-1.34,8.66-1.34s6.32,0.48,8.66,1.34c1.5,0.551,2.73,1.28,3.65,2.141c1.319,1.25,2.02,2.81,2.02,4.5   c0,1.93-0.38,3.81-1.13,5.58c-0.72,1.709-1.75,3.24-3.07,4.55c-1.31,1.319-2.851,2.35-4.55,3.069   C53.811,78.77,51.93,79.15,50,79.15L50,79.15z M42.65,65.25c0.22,3.859,3.44,6.93,7.35,6.93s7.13-3.07,7.35-6.93   c-0.31-0.21-0.97-0.55-2.14-0.85c-1.47-0.381-3.319-0.59-5.21-0.59c-1.89,0-3.74,0.209-5.21,0.59   C43.62,64.7,42.96,65.04,42.65,65.25L42.65,65.25z"/></g><text x="0" y="115" fill="#000000" font-size="5px" font-weight="bold" font-family="'Helvetica Neue', Helvetica, Arial-Unicode, Arial, Sans-serif"></text><text x="0" y="120" fill="#000000" font-size="5px" font-weight="bold" font-family="'Helvetica Neue', Helvetica, Arial-Unicode, Arial, Sans-serif"></text></svg>
