<svg xmlns="http://www.w3.org/2000/svg" xmlns:xlink="http://www.w3.org/1999/xlink" version="1.1" x="0px" y="0px" viewBox="0 0 50 62.5" enable-background="new 0 0 50 50" xml:space="preserve"><path d="M25,50C11.215,50,0,38.785,0,25C0,11.215,11.215,0,25,0c13.785,0,25,11.215,25,25C50,38.785,38.785,50,25,50z M25,1.937  C12.283,1.937,1.937,12.283,1.937,25c0,12.717,10.346,23.063,23.063,23.063c12.717,0,23.063-10.346,23.063-23.063  C48.063,12.283,37.717,1.937,25,1.937z"/><path d="M14.157,22.5c-2.688,0-4.875-2.187-4.875-4.875s2.187-4.875,4.875-4.875s4.875,2.187,4.875,4.875S16.845,22.5,14.157,22.5z   M14.157,14.75c-1.585,0-2.875,1.29-2.875,2.875s1.29,2.875,2.875,2.875s2.875-1.29,2.875-2.875S15.743,14.75,14.157,14.75z"/><path d="M35.844,22.5c-2.688,0-4.875-2.187-4.875-4.875s2.187-4.875,4.875-4.875s4.875,2.187,4.875,4.875S38.532,22.5,35.844,22.5z   M35.844,14.75c-1.585,0-2.875,1.29-2.875,2.875s1.29,2.875,2.875,2.875s2.875-1.29,2.875-2.875S37.429,14.75,35.844,14.75z"/><path d="M25,43.15c-7.032,0-12.754-5.721-12.755-12.754c0-0.224,0.089-0.438,0.248-0.597c0.158-0.158,0.373-0.247,0.597-0.247  h23.822c0.224,0,0.438,0.089,0.597,0.247s0.247,0.373,0.247,0.597C37.754,37.43,32.032,43.15,25,43.15z M13.965,31.24  C14.398,36.95,19.182,41.463,25,41.463c5.817,0,10.602-4.513,11.035-10.223H13.965z"/><text x="0" y="65" fill="#000000" font-size="5px" font-weight="bold" font-family="'Helvetica Neue', Helvetica, Arial-Unicode, Arial, Sans-serif"></text><text x="0" y="70" fill="#000000" font-size="5px" font-weight="bold" font-family="'Helvetica Neue', Helvetica, Arial-Unicode, Arial, Sans-serif"></text></svg>
