<svg xmlns="http://www.w3.org/2000/svg" xmlns:xlink="http://www.w3.org/1999/xlink" version="1.1" x="0px" y="0px" viewBox="0 0 100 125" enable-background="new 0 0 100 100" xml:space="preserve"><path d="M49.8,97.9c-26.4,0-47.9-21.5-47.9-47.9S23.4,2,49.8,2s47.9,21.5,47.9,47.9S76.3,97.9,49.8,97.9z M49.8,8.3  C26.9,8.3,8.2,27,8.2,49.9s18.7,41.6,41.6,41.6s41.6-18.7,41.6-41.6S72.8,8.3,49.8,8.3z"/><path d="M33.3,72.5c-0.3,1.2-0.1,2.7,1,2.7l1.2-0.3c8.6-2.3,17.5-2.3,26.1,0.1l0.9,0.3c1,0,1.2-1.5,1-2.7c-0.8-3.8-6.1-9.8-15-9.8  C39.7,62.7,34.1,69,33.3,72.5z"/><path d="M29.6,32.2c-6.2-3-11.2-2.5-12.4-1.4c-0.4,0.4-0.6,1,0.2,1.4l0.9,0.3c3.6,1.1,7,2.5,10.4,4.2c-1.8,1.3-2.9,3.9-2.9,6.8  c0,4.3,2.6,7.8,5.8,7.8s5.8-3.5,5.8-7.8c0-0.6-0.1-1.2-0.1-1.7c0.7,0.3,1.1-0.2,1.1-0.7C38.5,39.2,35.9,35.1,29.6,32.2z"/><path d="M79.6,30.7c-1.2-1.1-6.3-1.5-12.4,1.4c-6.2,3-8.9,7.1-8.7,8.8c0,0.4,0.3,0.8,0.7,0.8c-0.1,0.5-0.1,1.1-0.1,1.6  c0,4.3,2.6,7.8,5.8,7.8c3.2,0,5.8-3.5,5.8-7.8c0-2.8-1.1-5.3-2.8-6.6c3.4-1.7,7-3.2,10.6-4.3l0.9-0.3C80.2,31.8,80,31.1,79.6,30.7z"/><text x="0" y="115" fill="#000000" font-size="5px" font-weight="bold" font-family="'Helvetica Neue', Helvetica, Arial-Unicode, Arial, Sans-serif"></text><text x="0" y="120" fill="#000000" font-size="5px" font-weight="bold" font-family="'Helvetica Neue', Helvetica, Arial-Unicode, Arial, Sans-serif"></text></svg>
